<svg xmlns="http://www.w3.org/2000/svg" width="800" height="50">
  <g shape-rendering="crispEdges">
    <path fill="#010409" d="M0 0h50v50H0z"/>
    <path fill="#272b33" d="M50 0h50v50H50z"/>
    <path fill="#525964" d="M100 0h50v50h-50z"/>
    <path fill="#7a828e" d="M150 0h50v50h-50z"/>
    <path fill="#bdc4cc" d="M200 0h50v50h-50z"/>
    <path fill="#d9dee3" d="M250 0h50v50h-50z"/>
    <path fill="#f0f3f6" d="M300 0h50v50h-50z"/>
    <path fill="#ffffff" d="M350 0h50v50h-50z"/>
    <path fill="#ff9492" d="M400 0h50v50h-50z"/>
    <path fill="#fe9a2d" d="M450 0h50v50h-50z"/>
    <path fill="#f0b72f" d="M500 0h50v50h-50z"/>
    <path fill="#26cd4d" d="M550 0h50v50h-50z"/>
    <path fill="#addcff" d="M600 0h50v50h-50z"/>
    <path fill="#71b7ff" d="M650 0h50v50h-50z"/>
    <path fill="#ff8dc7" d="M700 0h50v50h-50z"/>
    <path fill="#e7811d" d="M750 0h50v50h-50z"/>
  </g>
</svg>
