<svg xmlns="http://www.w3.org/2000/svg" width="800" height="50">
  <g shape-rendering="crispEdges">
    <path fill="#f6f8fa" d="M0 0h50v50H0z"/>
    <path fill="#d0d7de" d="M50 0h50v50H50z"/>
    <path fill="#afb8c1" d="M100 0h50v50h-50z"/>
    <path fill="#8c959f" d="M150 0h50v50h-50z"/>
    <path fill="#424a53" d="M200 0h50v50h-50z"/>
    <path fill="#32383f" d="M250 0h50v50h-50z"/>
    <path fill="#24292f" d="M300 0h50v50h-50z"/>
    <path fill="#1b1f24" d="M350 0h50v50h-50z"/>
    <path fill="#ac5e00" d="M400 0h50v50h-50z"/>
    <path fill="#bc4c00" d="M450 0h50v50h-50z"/>
    <path fill="#9a6700" d="M500 0h50v50h-50z"/>
    <path fill="#0566d5" d="M550 0h50v50h-50z"/>
    <path fill="#54aeff" d="M600 0h50v50h-50z"/>
    <path fill="#0969da" d="M650 0h50v50h-50z"/>
    <path fill="#bf3989" d="M700 0h50v50h-50z"/>
    <path fill="#762c00" d="M750 0h50v50h-50z"/>
  </g>
</svg>
