<svg xmlns="http://www.w3.org/2000/svg" width="800" height="50">
  <g shape-rendering="crispEdges">
    <path fill="#1c2128" d="M0 0h50v50H0z"/>
    <path fill="#373e47" d="M50 0h50v50H50z"/>
    <path fill="#444c56" d="M100 0h50v50h-50z"/>
    <path fill="#545d68" d="M150 0h50v50h-50z"/>
    <path fill="#768390" d="M200 0h50v50h-50z"/>
    <path fill="#909dab" d="M250 0h50v50h-50z"/>
    <path fill="#adbac7" d="M300 0h50v50h-50z"/>
    <path fill="#cdd9e5" d="M350 0h50v50h-50z"/>
    <path fill="#f47067" d="M400 0h50v50h-50z"/>
    <path fill="#e0823d" d="M450 0h50v50h-50z"/>
    <path fill="#c69026" d="M500 0h50v50h-50z"/>
    <path fill="#57ab5a" d="M550 0h50v50h-50z"/>
    <path fill="#96d0ff" d="M600 0h50v50h-50z"/>
    <path fill="#539bf5" d="M650 0h50v50h-50z"/>
    <path fill="#e275ad" d="M700 0h50v50h-50z"/>
    <path fill="#ae5622" d="M750 0h50v50h-50z"/>
  </g>
</svg>
