<svg xmlns="http://www.w3.org/2000/svg" width="1280" height="128">
  <path fill="#010409" d="M0 0h80v128H0z"/>
  <path fill="#21262d" d="M80 0h80v128H80z"/>
  <path fill="#30363d" d="M160 0h80v128h-80z"/>
  <path fill="#484f58" d="M240 0h80v128h-80z"/>
  <path fill="#8b949e" d="M320 0h80v128h-80z"/>
  <path fill="#b1bac4" d="M400 0h80v128h-80z"/>
  <path fill="#c9d1d9" d="M480 0h80v128h-80z"/>
  <path fill="#f0f6fc" d="M560 0h80v128h-80z"/>
  <path fill="#ff7b72" d="M640 0h80v128h-80z"/>
  <path fill="#f0883e" d="M720 0h80v128h-80z"/>
  <path fill="#d29922" d="M800 0h80v128h-80z"/>
  <path fill="#3fb950" d="M880 0h80v128h-80z"/>
  <path fill="#a5d6ff" d="M960 0h80v128h-80z"/>
  <path fill="#58a6ff" d="M1040 0h80v128h-80z"/>
  <path fill="#f778ba" d="M1120 0h80v128h-80z"/>
  <path fill="#bd561d" d="M1200 0h80v128h-80z"/>
</svg>
